<?xml version="1.0" encoding="utf-8"?>
<!-- Generator: Adobe Illustrator 25.0.1, SVG Export Plug-In . SVG Version: 6.00 Build 0)  -->
<svg version="1.1" id="Layer_1" xmlns="http://www.w3.org/2000/svg" xmlns:xlink="http://www.w3.org/1999/xlink" x="0px" y="0px"
	 viewBox="0 0 320 287.9" style="enable-background:new 0 0 320 287.9;" xml:space="preserve">
<style type="text/css">
	.st0{fill:#4285F4;}
	.st1{opacity:0.18;fill:#6EA2E6;}
	.st2{fill:#3D517D;}
	.st3{fill:#FC826A;}
	.st4{fill:#FFC182;}
	.st5{fill:#6EA2E6;}
	.st6{fill:#323E59;}
	.st7{fill:#5A70A1;}
	.st8{fill:#6887D9;}
	.st9{fill:#FFFFFF;}
	.st10{fill:#A877BA;}
	.st11{fill:#B681C9;}
	.st12{fill:#FFD587;}
	.st13{fill:#FFD98C;}
	.st14{fill:#E6E6E6;}
	.st15{fill:#C4C4C4;}
	.st16{fill:#FFC987;}
	.st17{fill:none;stroke:#6EA2E6;stroke-miterlimit:10;}
	.st18{fill:none;stroke:#FFC182;stroke-linecap:round;stroke-miterlimit:10;}
	.st19{fill:#FF9670;}
	.st20{fill:none;stroke:#FF9670;stroke-width:2;stroke-miterlimit:10;}
	.st21{fill:#D6D6D6;}
</style>
<g>
	<path class="st0" d="M1.6,284.1c-0.4-0.5-0.6-1-1.3-1.4c-0.7-0.4-0.2-0.7,1.8-0.8c8-0.3,16.1-0.7,24.1-1c0-0.1-0.1-0.1-0.1-0.2
		c-2.9,0.1-5.8,0.1-8.7,0.2c-3.2,0.1-6.3,0.2-9.5,0.3c-0.9,0-1.8-0.2-2.7-0.2c0.7-0.1,1.3-0.3,2-0.4c9-0.4,17.9-0.9,27-1.2
		c12.5-0.4,25.1-0.6,37.7-0.8c9.2-0.2,18.4-0.2,27.7-0.2c30.8-0.1,61.6-0.3,92.4-0.3c11.3,0,22.6,0.3,33.9,0.5
		c6.9,0.1,13.8,0.2,20.7,0.4c2.2,0.1,4.3,0.3,6.5,0.4c3.3,0.1,6.7,0.2,10.1,0.4c1.7,0.1,3.3,0.2,4.9,0.3c0,0.1-0.1,0.2-0.1,0.2
		c-5.5-0.1-10.9-0.1-16.4-0.2c0,0,0,0.1-0.1,0.1c5.4,0.2,10.8,0.3,16.2,0.5c0,0.1,0,0.1,0,0.2c-2.2,0-4.3,0-6.5,0c0,0.1,0,0.1,0,0.2
		c3.5,0.1,6.9,0.2,10.4,0.3c0,0.1,0,0.1,0,0.2c-7.3,0.2-14.7-0.2-22.1,0c7.4,0.5,14.8,1,22.3,1.5c-0.1,0-0.1,0.1-0.2,0.1
		c-10.6,0-21.3,0-32.6,0c0.2,0.2,0.2,0.5,0.9,0.6c1.2,0.2,2.8,0.4,4.3,0.4c19.5,0.4,38.8,1,57.9,2c4.6,0.2,9.1,0.4,12.9,1.1
		c1.3,0.2,3.4,0.3,5.1,0.5c-0.8,0-1.6,0.1-2.4,0c-7.5-0.3-14.9-0.6-22.4-0.8c-3.4-0.1-6.9,0-10.3,0c-1.9,0-3.8-0.1-5.7-0.2
		c-4.9-0.1-9.7-0.2-14.6-0.3c-0.5,0-1.2-0.1-1.5,0c-3.9,0.7-8.3,0.2-12.4,0.3c-11.5,0.1-23.1,0.1-34.6,0.1
		c-10.6,0-21.2-0.1-31.8-0.1c-8.2,0-16.4,0-24.6,0.1c-9.3,0.1-18.6,0.2-27.9,0.3c-11.3,0.2-22.6,0.4-33.9,0.6
		c-3.7,0.1-7.4,0.3-11.2,0.4c0.5,0,1.1-0.1,2.5-0.2c-1.4,0-2.1-0.1-2.8-0.1c-5.1,0.1-10.2,0.2-15.3,0.3c-2.1,0-4.2-0.3-6.4-0.3
		c-7.7,0-15.4-0.1-23.1,0c-9.2,0-18.4,0.2-27.6,0.2c-1.7,0-3.5-0.1-5.2-0.1c-0.1-0.1-0.1-0.2-0.2-0.3c8.6-0.5,17.2-0.9,25.8-1.4
		c0-0.1,0-0.1,0-0.2c-3.4,0-6.9-0.1-10.3-0.1c-3.3,0-6.6,0-9.9,0c-4.8,0.1-7.8-0.5-10.5-1.3C3.2,284.3,2.1,284.2,1.6,284.1z"/>
	<g>
		<path class="st1" d="M52.3,221.5H5.6c-3.1,0-5.6-2.5-5.6-5.6v-46.3c0-3.1,2.5-5.6,5.6-5.6h46.7c3.1,0,5.6,2.5,5.6,5.6v46.3
			C58,219,55.4,221.5,52.3,221.5z"/>
		<path class="st1" d="M314.4,112.9h-46.7c-3.1,0-5.6-2.5-5.6-5.6V61c0-3.1,2.5-5.6,5.6-5.6h46.7c3.1,0,5.6,2.5,5.6,5.6v46.3
			C320,110.4,317.5,112.9,314.4,112.9z"/>
		<path class="st1" d="M259,262.2h-46.7c-3.1,0-5.6-2.5-5.6-5.6v-46.3c0-3.1,2.5-5.6,5.6-5.6H259c3.1,0,5.6,2.5,5.6,5.6v46.3
			C264.6,259.7,262.1,262.2,259,262.2z"/>
		<path class="st1" d="M107.4,96.9H60.8c-3.1,0-5.6-2.5-5.6-5.6V45c0-3.1,2.5-5.6,5.6-5.6h46.7c3.1,0,5.6,2.5,5.6,5.6v46.3
			C113.1,94.4,110.5,96.9,107.4,96.9z"/>
		<g>
			<path class="st2" d="M276.4,234.3H46.3c-3.1,0-5.6-2.5-5.6-5.6V79.1c0-3.1,2.5-5.6,5.6-5.6h230.1c3.1,0,5.6,2.5,5.6,5.6v149.5
				C282.1,231.7,279.6,234.3,276.4,234.3z"/>
		</g>
		<circle class="st3" cx="271.9" cy="83.1" r="2.2"/>
		<path class="st4" d="M264.6,83.1c0,1.2-1,2.2-2.2,2.2c-1.2,0-2.2-1-2.2-2.2s1-2.2,2.2-2.2C263.7,80.9,264.6,81.9,264.6,83.1z"/>
		<path class="st5" d="M255.2,83.1c0,1.2-1,2.2-2.2,2.2c-1.2,0-2.2-1-2.2-2.2s1-2.2,2.2-2.2C254.2,80.9,255.2,81.9,255.2,83.1z"/>
		<g>
			<path class="st2" d="M102.9,152.6H56.2c-3.1,0-5.6-2.5-5.6-5.6v-46.3c0-3.1,2.5-5.6,5.6-5.6h46.7c3.1,0,5.6,2.5,5.6,5.6V147
				C108.5,150.1,106,152.6,102.9,152.6z"/>
			<path class="st6" d="M52.8,150.5v-48.6c0-2.5,2-4.5,4.5-4.5h49c0.6,0,1.2,0.1,1.8,0.4c-0.7-1.6-2.3-2.7-4.1-2.7H55
				c-2.5,0-4.5,2-4.5,4.5v48.6c0,1.8,1.1,3.4,2.7,4.1C53,151.7,52.8,151.1,52.8,150.5z"/>
			<path class="st7" d="M106,95.5c0.5,0.7,0.7,1.5,0.7,2.5v48.6c0,2.5-2,4.5-4.5,4.5h-49c-0.7,0-1.4-0.2-1.9-0.4
				c0.8,1.2,2.2,2,3.7,2h49c2.5,0,4.5-2,4.5-4.5V99.5C108.5,97.8,107.5,96.2,106,95.5z"/>
		</g>
		<g>
			<path class="st2" d="M171.6,219.4H125c-3.1,0-5.6-2.5-5.6-5.6v-46.3c0-3.1,2.5-5.6,5.6-5.6h46.7c3.1,0,5.6,2.5,5.6,5.6v46.3
				C177.3,216.9,174.7,219.4,171.6,219.4z"/>
			<path class="st6" d="M121.6,217.2v-48.6c0-2.5,2-4.5,4.5-4.5h49c0.6,0,1.2,0.1,1.8,0.4c-0.7-1.6-2.3-2.7-4.1-2.7h-49
				c-2.5,0-4.5,2-4.5,4.5v48.6c0,1.8,1.1,3.4,2.7,4.1C121.8,218.5,121.6,217.9,121.6,217.2z"/>
			<path class="st7" d="M174.7,162.3c0.5,0.7,0.7,1.5,0.7,2.5v48.6c0,2.5-2,4.5-4.5,4.5h-49c-0.7,0-1.4-0.2-1.9-0.4
				c0.8,1.2,2.2,2,3.7,2h49c2.5,0,4.5-2,4.5-4.5v-48.6C177.3,164.5,176.2,163,174.7,162.3z"/>
		</g>
		<g>
			<g>
				<path class="st8" d="M103.2,219.4H56.5c-3.1,0-5.6-2.5-5.6-5.6v-46.3c0-3.1,2.5-5.6,5.6-5.6h46.7c3.1,0,5.6,2.5,5.6,5.6v46.3
					C108.9,216.9,106.3,219.4,103.2,219.4z"/>
				<path class="st5" d="M104.4,219.4c2.5,0,4.5-2,4.5-4.5v-48.6c0-1.8-1.1-3.4-2.7-4.1C86,193.6,64,208.3,50.9,214.8v0.2
					c0,2.5,2,4.5,4.5,4.5H104.4z"/>
			</g>
		</g>
		<path class="st9" d="M89.9,193.7l-1.6-0.9c-0.1-0.1-0.1-0.2-0.1-0.3c0-0.3,0-0.6,0-0.9c0-0.6,0-1.1-0.1-1.6c0-0.1,0-0.2,0.1-0.3
			l1.4-0.8c0.6-0.3,0.7-1,0.4-1.6l-1.9-3.2c-0.3-0.6-1-0.7-1.6-0.4l-1.5,0.9c-0.1,0.1-0.2,0-0.3,0c-0.7-0.5-1.5-1-2.3-1.3
			c-0.1,0-0.2-0.1-0.2-0.3v-1.3c0-0.6-0.5-1.2-1.2-1.2h-3.7c-0.6,0-1.2,0.5-1.2,1.2v1.3c0,0.1-0.1,0.2-0.2,0.3
			c-1,0.4-1.8,0.9-2.6,1.5c-0.1,0.1-0.2,0.1-0.3,0l-0.8-0.5c-0.6-0.3-1.3-0.1-1.6,0.4l-1.9,3.2c-0.3,0.6-0.1,1.3,0.4,1.6l1,0.5
			c0.1,0.1,0.2,0.2,0.1,0.3c-0.1,0.4-0.1,0.8-0.1,1.2c0,0.7,0.1,1.3,0.2,2c0,0.1,0,0.2-0.1,0.3l-0.7,0.4c-0.6,0.3-0.7,1-0.4,1.6
			l1.9,3.2c0.3,0.6,1,0.7,1.6,0.4l1.1-0.6c0.1-0.1,0.2,0,0.3,0c0.8,0.6,1.7,1,2.7,1.3c0.1,0,0.2,0.1,0.2,0.3v1.1
			c0,0.6,0.5,1.2,1.2,1.2h3.7c0.6,0,1.2-0.5,1.2-1.2V200c0-0.1,0.1-0.2,0.2-0.3c0.8-0.4,1.5-0.9,2.2-1.5c0.1-0.1,0.2-0.1,0.3,0
			l1.3,0.7c0.6,0.3,1.3,0.1,1.6-0.4l1.9-3.2C90.7,194.7,90.5,194,89.9,193.7z M79.5,196c-2.4,0-4.4-2-4.4-4.4c0-2.4,2-4.4,4.4-4.4
			c2.4,0,4.4,2,4.4,4.4C83.9,194.1,82,196,79.5,196z"/>
		<g>
			<g>
				<path class="st10" d="M172.6,118.4H124c-2.6,0-4.7-2.1-4.7-4.7v-13.5c0-2.6,2.1-4.7,4.7-4.7h48.6c2.6,0,4.7,2.1,4.7,4.7v13.5
					C177.3,116.3,175.2,118.4,172.6,118.4z"/>
			</g>
			<g>
				<path class="st11" d="M177.3,114v-14c0-1.6-0.8-3-2.1-3.8c-18.5,13.3-44.6,17.4-55.8,18.7c0.4,2,2.2,3.6,4.4,3.6h49
					C175.3,118.4,177.3,116.4,177.3,114z"/>
			</g>
			<path class="st12" d="M177.3,98.6"/>
			<circle class="st9" cx="131" cy="107.1" r="6.7"/>
			<path class="st9" d="M170.1,103.9h-25.9c-0.4,0-0.6-0.3-0.6-0.6l0,0c0-0.4,0.3-0.6,0.6-0.6h25.9c0.4,0,0.6,0.3,0.6,0.6l0,0
				C170.7,103.6,170.4,103.9,170.1,103.9z"/>
			<path class="st9" d="M170.1,108.3h-25.9c-0.4,0-0.6-0.3-0.6-0.6l0,0c0-0.4,0.3-0.6,0.6-0.6h25.9c0.4,0,0.6,0.3,0.6,0.6l0,0
				C170.7,108,170.4,108.3,170.1,108.3z"/>
			<path class="st9" d="M163.6,112.6h-19.5c-0.4,0-0.6-0.3-0.6-0.6l0,0c0-0.4,0.3-0.6,0.6-0.6h19.5c0.4,0,0.6,0.3,0.6,0.6l0,0
				C164.3,112.3,164,112.6,163.6,112.6z"/>
		</g>
		<g>
			<path class="st4" d="M259.9,215.6h-48.6c-2.6,0-4.7-2.1-4.7-4.7v-13.5c0-2.6,2.1-4.7,4.7-4.7h48.6c2.6,0,4.7,2.1,4.7,4.7v13.5
				C264.6,213.5,262.5,215.6,259.9,215.6z"/>
			<path class="st13" d="M264.6,211.1v-14c0-1.6-0.8-3-2.1-3.8c-18.5,13.3-44.6,17.4-55.8,18.7c0.4,2,2.2,3.6,4.4,3.6h49
				C262.6,215.6,264.6,213.6,264.6,211.1z"/>
			<path class="st12" d="M264.6,195.8"/>
			<circle class="st9" cx="218.3" cy="204.3" r="6.7"/>
			<path class="st9" d="M257.4,201.1h-25.9c-0.4,0-0.6-0.3-0.6-0.6l0,0c0-0.4,0.3-0.6,0.6-0.6h25.9c0.4,0,0.6,0.3,0.6,0.6l0,0
				C258.1,200.8,257.8,201.1,257.4,201.1z"/>
			<path class="st9" d="M257.4,205.4h-25.9c-0.4,0-0.6-0.3-0.6-0.6l0,0c0-0.4,0.3-0.6,0.6-0.6h25.9c0.4,0,0.6,0.3,0.6,0.6l0,0
				C258.1,205.1,257.8,205.4,257.4,205.4z"/>
			<path class="st9" d="M251,209.8h-19.5c-0.4,0-0.6-0.3-0.6-0.6l0,0c0-0.4,0.3-0.6,0.6-0.6H251c0.4,0,0.6,0.3,0.6,0.6l0,0
				C251.6,209.5,251.3,209.8,251,209.8z"/>
		</g>
		<g>
			<g>
				<g>
					<g>
						<path class="st10" d="M193,247.6h-46.7c-3.1,0-5.6-2.5-5.6-5.6v-46.3c0-3.1,2.5-5.6,5.6-5.6H193c3.1,0,5.6,2.5,5.6,5.6V242
							C198.7,245.1,196.2,247.6,193,247.6z"/>
					</g>
					<g>
						<path class="st11" d="M194.2,247.6c2.5,0,4.5-2,4.5-4.5v-48.6c0-1.8-1.1-3.4-2.7-4.1c-20.2,31.4-42.2,46.1-55.3,52.5v0.2
							c0,2.5,2,4.5,4.5,4.5H194.2z"/>
					</g>
				</g>
			</g>
			<g>
				<g>
					<path class="st9" d="M152.7,222.3c-0.3-0.1-0.5-0.3-0.6-0.6c-0.2-0.3-0.2-0.5-0.2-0.8c0-0.3,0.1-0.6,0.3-0.9
						c0.2-0.3,0.5-0.5,0.8-0.6l9.6-4c0.1,0,0.2,0,0.2,0c0.3,0,0.5,0.1,0.7,0.4c0.2,0.3,0.3,0.6,0.3,0.9c0,0.4-0.2,0.7-0.5,0.8
						l-8.3,3.4l8.4,3.5c0.3,0.1,0.4,0.4,0.4,0.7c0,0.3-0.1,0.6-0.3,0.9c-0.2,0.3-0.4,0.4-0.6,0.4c-0.1,0-0.1,0-0.2,0L152.7,222.3z"
						/>
					<path class="st9" d="M166.9,228.2c-0.2-0.2-0.3-0.4-0.3-0.7c0-0.1,0-0.4,0.1-0.6l5.5-16.3c0.1-0.3,0.2-0.5,0.4-0.7
						c0.2-0.2,0.4-0.2,0.6-0.2c0.3,0,0.5,0.1,0.7,0.3c0.2,0.2,0.3,0.4,0.3,0.7c0,0.2,0,0.4-0.1,0.6l-5.6,16.5
						c-0.2,0.5-0.5,0.7-1,0.7C167.3,228.4,167.1,228.3,166.9,228.2z"/>
					<path class="st9" d="M177.4,226.6c-0.2,0-0.5-0.1-0.6-0.4c-0.2-0.3-0.3-0.6-0.3-0.9c0-0.4,0.1-0.6,0.4-0.7l8.4-3.5l-8.3-3.4
						c-0.4-0.1-0.5-0.4-0.5-0.8c0-0.3,0.1-0.6,0.3-0.9c0.2-0.3,0.5-0.4,0.7-0.4c0,0,0.1,0,0.2,0l9.6,4c0.4,0.2,0.6,0.4,0.8,0.6
						c0.2,0.3,0.3,0.6,0.3,0.9c0,0.3-0.1,0.6-0.2,0.8c-0.2,0.3-0.4,0.5-0.7,0.6l-9.9,4.2C177.5,226.6,177.5,226.6,177.4,226.6z"/>
				</g>
			</g>
		</g>
		<g>
			<path class="st14" d="M139.9,6.5h-15.2c-1.1,0-2,0.9-2,2v24.7c0,1.1,0.9,2,2,2h18.7c1.1,0,2-0.9,2-2V11.7L139.9,6.5z"/>
			<path class="st15" d="M139.9,6.5l5.5,5.2h-4.5c-0.5,0-1-0.4-1-1V6.5z"/>
			<path class="st5" d="M140.5,27h-13c-0.2,0-0.3-0.1-0.3-0.3l0,0c0-0.2,0.1-0.3,0.3-0.3h13c0.2,0,0.3,0.1,0.3,0.3l0,0
				C140.9,26.9,140.7,27,140.5,27z"/>
			<path class="st5" d="M140.5,23.5h-13c-0.2,0-0.3-0.1-0.3-0.3l0,0c0-0.2,0.1-0.3,0.3-0.3h13c0.2,0,0.3,0.1,0.3,0.3l0,0
				C140.9,23.3,140.7,23.5,140.5,23.5z"/>
			<path class="st5" d="M140.5,19.9h-13c-0.2,0-0.3-0.1-0.3-0.3l0,0c0-0.2,0.1-0.3,0.3-0.3h13c0.2,0,0.3,0.1,0.3,0.3l0,0
				C140.9,19.8,140.7,19.9,140.5,19.9z"/>
			<path class="st5" d="M140.5,16.3h-13c-0.2,0-0.3-0.1-0.3-0.3l0,0c0-0.2,0.1-0.3,0.3-0.3h13c0.2,0,0.3,0.1,0.3,0.3l0,0
				C140.9,16.2,140.7,16.3,140.5,16.3z"/>
			<path class="st5" d="M137.3,30.2h-9.8c-0.2,0-0.3-0.1-0.3-0.3l0,0c0-0.2,0.1-0.3,0.3-0.3h9.8c0.2,0,0.3,0.1,0.3,0.3l0,0
				C137.6,30,137.5,30.2,137.3,30.2z"/>
		</g>
		<path class="st16" d="M140.9,22.2l-2.1,2.2l-17.6,0c-1.4,0-2.5,1.1-2.5,2.5l0,18.2c0,1.4,1.1,2.5,2.5,2.5l27.7-0.1
			c1.4,0,2.5-1.1,2.5-2.5l0-18.6l0-2.1l0-1.3c0-0.8-0.6-1.4-1.4-1.4l-8.1,0C141.5,21.8,141.1,22,140.9,22.2z"/>
		<path class="st5" d="M155.1,38.6h-3.7V32h3.7c0.9,0,1.6,0.7,1.6,1.6V37C156.7,37.9,155.9,38.6,155.1,38.6z"/>
		<path class="st5" d="M217.3,69.7v3.7h-6.6v-3.7c0-0.9,0.7-1.6,1.6-1.6h3.4C216.6,68.1,217.3,68.8,217.3,69.7z"/>
		<path class="st17" d="M154,35.3h49.9c5.6,0,10.1,4.5,10.1,10.1v28"/>
		<path class="st5" d="M285.8,104.4h-3.7v-6.6h3.7c0.9,0,1.6,0.7,1.6,1.6v3.4C287.4,103.7,286.7,104.4,285.8,104.4z"/>
		<path class="st5" d="M309.6,238.4v3.7H303v-3.7c0-0.9,0.7-1.6,1.6-1.6h3.4C308.9,236.8,309.6,237.5,309.6,238.4z"/>
		<path class="st17" d="M284.7,101.1h11.5c5.6,0,10.1,4.5,10.1,10.1v130.9"/>
		<g>
			<path class="st5" d="M25,37.4v-3.7h-6.6v3.7c0,0.9,0.7,1.6,1.6,1.6h3.4C24.3,39.1,25,38.3,25,37.4z"/>
			<path class="st5" d="M84.1,69.7v3.7h6.6v-3.7c0-0.9-0.7-1.6-1.6-1.6h-3.4C84.8,68.1,84.1,68.8,84.1,69.7z"/>
			<path class="st17" d="M21.7,36.4v8.3c0,5.6,4.5,10.1,10.1,10.1h46.3c5.1,0,9.2,4.1,9.2,9.2v7.3"/>
		</g>
		<g>
			<path class="st14" d="M225,96.5h-29.7c-2.1,0-3.9,1.7-3.9,3.9v48c0,2.1,1.7,3.9,3.9,3.9h36.5c2.1,0,3.9-1.7,3.9-3.9v-41.7
				L225,96.5z"/>
			<path class="st9" d="M225,94.7h-29.7c-2.1,0-3.9,1.7-3.9,3.9v48c0,2.1,1.7,3.9,3.9,3.9h36.5c2.1,0,3.9-1.7,3.9-3.9v-41.7
				L225,94.7z"/>
			<path class="st14" d="M225,94.7l10.7,10.2h-8.8c-1.1,0-1.9-0.9-1.9-1.9V94.7z"/>
			<path class="st5" d="M226.2,134.7h-25.4c-0.3,0-0.6-0.3-0.6-0.6l0,0c0-0.3,0.3-0.6,0.6-0.6h25.4c0.3,0,0.6,0.3,0.6,0.6l0,0
				C226.9,134.4,226.6,134.7,226.2,134.7z"/>
			<path class="st5" d="M226.2,127.7h-25.4c-0.3,0-0.6-0.3-0.6-0.6l0,0c0-0.3,0.3-0.6,0.6-0.6h25.4c0.3,0,0.6,0.3,0.6,0.6l0,0
				C226.9,127.5,226.6,127.7,226.2,127.7z"/>
			<path class="st5" d="M226.2,120.8h-25.4c-0.3,0-0.6-0.3-0.6-0.6l0,0c0-0.3,0.3-0.6,0.6-0.6h25.4c0.3,0,0.6,0.3,0.6,0.6l0,0
				C226.9,120.5,226.6,120.8,226.2,120.8z"/>
			<path class="st5" d="M226.2,113.8h-25.4c-0.3,0-0.6-0.3-0.6-0.6l0,0c0-0.3,0.3-0.6,0.6-0.6h25.4c0.3,0,0.6,0.3,0.6,0.6l0,0
				C226.9,113.5,226.6,113.8,226.2,113.8z"/>
			<path class="st5" d="M219.9,140.8h-19.1c-0.3,0-0.6-0.3-0.6-0.6l0,0c0-0.3,0.3-0.6,0.6-0.6h19.1c0.3,0,0.6,0.3,0.6,0.6l0,0
				C220.5,140.6,220.3,140.8,219.9,140.8z"/>
			<circle class="st5" cx="197.3" cy="100.8" r="2.4"/>
		</g>
		<g>
			<g>
				<g>
					<path class="st8" d="M208,180.4h-15.1c-0.9,0-1.6-0.7-1.6-1.6v-15c0-0.9,0.7-1.6,1.6-1.6H208c0.9,0,1.6,0.7,1.6,1.6v15
						C209.6,179.7,208.9,180.4,208,180.4z"/>
					<path class="st5" d="M208.2,180.4c0.8,0,1.4-0.6,1.4-1.4v-15.3c0-0.6-0.3-1.1-0.8-1.3c-6.4,9.9-13.3,14.5-17.4,16.5v0.1
						c0,0.8,0.6,1.4,1.4,1.4H208.2z"/>
				</g>
			</g>
			<path class="st9" d="M200.2,173.5l2.1-2.1c0.1-0.1,0.2-0.1,0.4-0.1c1,0.3,2.1,0.1,2.8-0.6c0.6-0.5,0.9-1.3,0.9-2
				c0-0.3-0.4-0.5-0.6-0.3l-1,1c-0.2,0.2-0.5,0.2-0.6,0.1l-1.6-1.6c-0.1-0.1-0.1-0.4,0-0.5l1.1-1.1c0.2-0.2,0.1-0.6-0.3-0.6
				c-0.7,0-1.4,0.3-1.9,0.8c-0.8,0.8-1,1.9-0.7,2.9c0,0.1,0,0.3-0.1,0.4l-2.1,2.1c-0.1,0.1-0.2,0.1-0.4,0.1c-1-0.3-2.1-0.1-2.8,0.6
				c-0.6,0.5-0.9,1.3-0.9,2c0,0.3,0.4,0.5,0.6,0.3l1.1-1.1c0.1-0.1,0.4-0.1,0.5,0l1.6,1.6c0.1,0.1,0.1,0.4,0,0.5l-1.1,1.1
				c-0.2,0.2-0.1,0.6,0.3,0.6c0.7,0,1.4-0.3,1.9-0.8c0.8-0.8,1-1.9,0.7-2.9C200.1,173.7,200.1,173.6,200.2,173.5z"/>
		</g>
		<g>
			<path class="st18" d="M221.6,94.6v6.5c0,1.3-0.5,3.1-2.9,3.1c-2.5,0-2.9-1.8-2.9-3.1v-9.9"/>
			<path class="st18" d="M221.6,99.3v-6.5c0-0.9-0.7-2-2-2c-1.3,0-2,1.1-2,2v5.1"/>
			<path class="st18" d="M217.6,95.7v4.6c0,0.5-0.1,1.6,1,1.6c1.2,0,1.1-1.2,1.1-1.6v-5.7"/>
		</g>
		<path class="st5" d="M266,36.4c0.1,0,9.2,0,9.2,0h21h8c5,0,9-4,9-9s-4-9-9-9c-0.1,0-0.1,0-0.2,0c-1.4-8.9-9-15.6-18.3-15.6
			c-7.3,0-13.6,4.2-16.6,10.3c-1-0.3-2.1-0.4-3.1-0.4c-6.6,0-11.9,5.3-11.9,11.9S259.4,36.4,266,36.4z"/>
		<g>
			<path class="st9" d="M290.3,26l-11.5,0c-0.4,0-0.7-0.4-0.4-0.8l5.8-9.6c0.2-0.3,0.7-0.3,0.9,0l5.7,9.6
				C291,25.5,290.7,26,290.3,26z"/>
			<path class="st9" d="M284.1,29.4l0.8,0c0.5,0,0.9-0.4,0.9-0.9l0-8c0-0.5-0.4-0.9-0.9-0.9l-0.8,0c-0.5,0-0.9,0.4-0.9,0.9l0,8
				C283.2,29,283.6,29.4,284.1,29.4z"/>
		</g>
		<g>
			<g>
				<path class="st3" d="M63,140.5H16.4c-3.1,0-5.6-2.5-5.6-5.6V88.6c0-3.1,2.5-5.6,5.6-5.6H63c3.1,0,5.6,2.5,5.6,5.6v46.3
					C68.7,138,66.2,140.5,63,140.5z"/>
				<path class="st19" d="M64.2,140.5c2.5,0,4.5-2,4.5-4.5V87.4c0-1.8-1.1-3.4-2.7-4.1c-20.2,31.4-42.2,46.1-55.3,52.5v0.2
					c0,2.5,2,4.5,4.5,4.5H64.2z"/>
				<path class="st20" d="M66.6,144.1H12.8c-3.1,0-5.6-2.5-5.6-5.6V85.1c0-3.1,2.5-5.6,5.6-5.6h53.8c3.1,0,5.6,2.5,5.6,5.6v53.4
					C72.2,141.5,69.7,144.1,66.6,144.1z"/>
			</g>
			<g>
				<path class="st9" d="M23.9,123.9h15.8c1.3,0,2-1.4,1.3-2.5l-7.9-11.6c-0.6-0.9-2-0.9-2.6,0l-7.9,11.6
					C21.8,122.4,22.6,123.9,23.9,123.9z"/>
				<path class="st9" d="M38.7,123.9h15.8c1.3,0,2-1.4,1.3-2.5l-7.9-11.6c-0.6-0.9-2-0.9-2.6,0l-7.9,11.6
					C36.6,122.4,37.4,123.9,38.7,123.9z"/>
				<path class="st9" d="M42,102.7c0,1.7-1.4,3-3,3c-1.7,0-3-1.4-3-3c0-1.7,1.4-3,3-3C40.6,99.6,42,101,42,102.7z"/>
			</g>
		</g>
		<g>
			<path class="st9" d="M79.9,136.3l-11.9,11.8c-0.4,0.4-1.1,0.2-1.3-0.4l-3.9-15.8c-0.1-0.6,0.4-1.1,0.9-0.9l15.8,4
				C80.1,135.1,80.3,135.8,79.9,136.3z"/>
			<path class="st9" d="M80,149.6l1.5-1.5c0.4-0.4,0.4-1,0-1.3l-8.8-8.8c-0.4-0.4-1-0.4-1.3,0l-1.5,1.5c-0.4,0.4-0.4,1,0,1.3
				l8.8,8.8C79,150,79.6,150,80,149.6z"/>
		</g>
		
			<ellipse transform="matrix(0.2289 -0.9735 0.9735 0.2289 125.7271 234.2355)" class="st5" cx="210.7" cy="37.8" rx="9.1" ry="9.1"/>
		<g>
			<path class="st9" d="M213,33C213,33,213,33,213,33c-0.1-0.1-0.1-0.2-0.2-0.4c0,0,0,0-0.1-0.1c-0.1-0.1-0.1-0.2-0.2-0.2
				c0,0,0,0-0.1-0.1c-0.2-0.2-0.4-0.3-0.7-0.4c0,0-0.1,0-0.1,0c-0.1,0-0.2-0.1-0.3-0.1c0,0-0.1,0-0.1,0c-0.1,0-0.3,0-0.4,0h-0.5
				c-0.1,0-0.3,0-0.4,0c0,0-0.1,0-0.1,0c-0.1,0-0.2,0.1-0.3,0.1c0,0-0.1,0-0.1,0c-0.2,0.1-0.5,0.3-0.7,0.4c0,0,0,0-0.1,0.1
				c-0.1,0.1-0.1,0.2-0.2,0.2c0,0,0,0-0.1,0.1c-0.1,0.1-0.1,0.2-0.2,0.3c0,0,0,0,0,0c-0.1,0.3-0.2,0.6-0.2,0.9v1.3
				c0,0.2,0.2,0.4,0.4,0.4c0.2,0,0.4-0.2,0.4-0.4v-1.3c0-0.2,0-0.4,0.1-0.6c0-0.1,0.1-0.2,0.2-0.3c0,0,0-0.1,0.1-0.1
				c0.1-0.1,0.2-0.2,0.3-0.2c0,0,0,0,0,0c0.1-0.1,0.2-0.1,0.3-0.1c0,0,0.1,0,0.1,0c0.1,0,0.2-0.1,0.4-0.1h0.5c0.1,0,0.3,0,0.4,0.1
				c0,0,0.1,0,0.1,0c0.1,0,0.2,0.1,0.3,0.1c0,0,0,0,0,0c0.1,0.1,0.2,0.1,0.3,0.2c0,0,0,0.1,0.1,0.1c0.1,0.1,0.1,0.2,0.2,0.3
				c0.1,0.2,0.1,0.4,0.1,0.6v1.3c0,0.2,0.2,0.4,0.4,0.4c0.2,0,0.4-0.2,0.4-0.4v-1.3C213.2,33.5,213.1,33.2,213,33z"/>
			<path class="st9" d="M210.7,40.7c-0.2,0-0.4-0.2-0.4-0.4v-1.4c0-0.2,0.2-0.4,0.4-0.4c0.2,0,0.4,0.2,0.4,0.4v1.4
				C211.1,40.5,210.9,40.7,210.7,40.7z"/>
			<path class="st9" d="M212.9,43.3h-4.4c-1.1,0-2-0.9-2-2V37c0-1.1,0.9-2,2-2h4.4c1.1,0,2,0.9,2,2v4.4
				C214.9,42.4,214,43.3,212.9,43.3z M208.5,35.8c-0.6,0-1.2,0.5-1.2,1.2v4.4c0,0.6,0.5,1.2,1.2,1.2h4.4c0.6,0,1.2-0.5,1.2-1.2V37
				c0-0.6-0.5-1.2-1.2-1.2H208.5z"/>
			<path class="st9" d="M211.5,38.8c0,0.5-0.4,0.8-0.8,0.8c-0.5,0-0.8-0.4-0.8-0.8c0-0.5,0.4-0.8,0.8-0.8
				C211.2,38,211.5,38.4,211.5,38.8z"/>
		</g>
		<g>
			<path class="st21" d="M316.4,268.4h-20.2c-1.1,0-1.9-0.9-1.9-1.9V255c0-1.1,0.9-1.9,1.9-1.9h20.2c1.1,0,1.9,0.9,1.9,1.9v11.5
				C318.3,267.5,317.4,268.4,316.4,268.4z"/>
			<path class="st14" d="M316.9,253.1h-21.2c-0.6,0-1.1,0.4-1.3,0.9l11.1,10.1c0.5,0.4,1.2,0.4,1.7,0l11.1-10.1
				C318,253.5,317.5,253.1,316.9,253.1z"/>
			<path class="st14" d="M316.9,253.1h-21.2c-0.6,0-1.1,0.4-1.3,0.9l11.1,8.6c0.5,0.4,1.2,0.4,1.7,0l11.1-8.6
				C318,253.5,317.5,253.1,316.9,253.1z"/>
		</g>
		<g>
			<path class="st9" d="M262.7,109h-18.3c-1.1,0-1.9-0.9-1.9-1.9V96.9c0-1.1,0.9-1.9,1.9-1.9h18.3c1.1,0,1.9,0.9,1.9,1.9v10.2
				C264.6,108.2,263.8,109,262.7,109z"/>
			<path class="st14" d="M263.4,94.9h-19.5c-0.5,0-1,0.3-1.2,0.8l10.2,9.3c0.5,0.4,1.1,0.4,1.5,0l10.2-9.3
				C264.4,95.3,263.9,94.9,263.4,94.9z"/>
			<path class="st9" d="M263.4,94.9h-19.5c-0.5,0-1,0.3-1.2,0.8l10.2,7.9c0.5,0.4,1.1,0.4,1.5,0l10.2-7.9
				C264.4,95.3,263.9,94.9,263.4,94.9z"/>
		</g>
		<path class="st2" d="M34.5,33.7H8.9c-2.2,0-4.1-1.8-4.1-4.1V18.8c0-2.2,1.8-4.1,4.1-4.1h25.6c2.2,0,4.1,1.8,4.1,4.1v10.9
			C38.6,31.9,36.8,33.7,34.5,33.7z"/>
		<g>
			<path class="st3" d="M9.5,20.9H8.8c-0.5,0-1-0.4-1-1v-0.2c0-0.5,0.4-1,1-1h0.7c0.5,0,1,0.4,1,1v0.2C10.5,20.5,10.1,20.9,9.5,20.9
				z"/>
			<path class="st3" d="M20,20.9h-0.7c-0.5,0-1-0.4-1-1v-0.2c0-0.5,0.4-1,1-1H20c0.5,0,1,0.4,1,1v0.2C20.9,20.5,20.5,20.9,20,20.9z"
				/>
			<path class="st4" d="M15.7,20.9h-2.6c-0.5,0-1-0.4-1-1v-0.2c0-0.5,0.4-1,1-1h2.6c0.5,0,1,0.4,1,1v0.2
				C16.6,20.5,16.2,20.9,15.7,20.9z"/>
			<path class="st3" d="M33.5,20.9h-9.1c-0.5,0-1-0.4-1-1v-0.2c0-0.5,0.4-1,1-1h9.1c0.5,0,1,0.4,1,1v0.2
				C34.5,20.5,34.1,20.9,33.5,20.9z"/>
			<path class="st4" d="M9.5,29.6H8.8c-0.5,0-1-0.4-1-1v-0.2c0-0.5,0.4-1,1-1h0.7c0.5,0,1,0.4,1,1v0.2C10.5,29.2,10.1,29.6,9.5,29.6
				z"/>
			<path class="st4" d="M34.6,29.6h-0.7c-0.5,0-1-0.4-1-1v-0.2c0-0.5,0.4-1,1-1h0.7c0.5,0,1,0.4,1,1v0.2
				C35.5,29.2,35.1,29.6,34.6,29.6z"/>
			<path class="st3" d="M15.7,29.6h-2.6c-0.5,0-1-0.4-1-1v-0.2c0-0.5,0.4-1,1-1h2.6c0.5,0,1,0.4,1,1v0.2
				C16.6,29.2,16.2,29.6,15.7,29.6z"/>
			<path class="st4" d="M29.8,29.6h-7.6c-0.5,0-1-0.4-1-1v-0.2c0-0.5,0.4-1,1-1h7.6c0.5,0,1,0.4,1,1v0.2
				C30.7,29.2,30.3,29.6,29.8,29.6z"/>
			<path class="st4" d="M9.5,25.2H8.8c-0.5,0-1-0.4-1-1v-0.2c0-0.5,0.4-1,1-1h0.7c0.5,0,1,0.4,1,1v0.2C10.5,24.8,10.1,25.2,9.5,25.2
				z"/>
			<path class="st3" d="M13.6,25.2h-0.7c-0.5,0-1-0.4-1-1v-0.2c0-0.5,0.4-1,1-1h0.7c0.5,0,1,0.4,1,1v0.2
				C14.5,24.8,14.1,25.2,13.6,25.2z"/>
			<path class="st4" d="M22,25.2h-4.5c-0.5,0-1-0.4-1-1v-0.2c0-0.5,0.4-1,1-1H22c0.5,0,1,0.4,1,1v0.2C22.9,24.8,22.5,25.2,22,25.2z"
				/>
		</g>
		<g>
			<path class="st2" d="M34.5,12.8H8.9c-2.2,0-4.1-1.8-4.1-4.1V4.1C4.8,1.8,6.7,0,8.9,0h25.6c2.2,0,4.1,1.8,4.1,4.1v4.6
				C38.6,11,36.8,12.8,34.5,12.8z"/>
			<g>
				<path class="st4" d="M9.5,9.6H8.8c-0.5,0-1-0.4-1-1V8.5c0-0.5,0.4-1,1-1h0.7c0.5,0,1,0.4,1,1v0.2C10.5,9.2,10.1,9.6,9.5,9.6z"/>
				<path class="st4" d="M34.6,9.6h-0.7c-0.5,0-1-0.4-1-1V8.5c0-0.5,0.4-1,1-1h0.7c0.5,0,1,0.4,1,1v0.2C35.5,9.2,35.1,9.6,34.6,9.6z
					"/>
				<path class="st3" d="M15.7,9.6h-2.6c-0.5,0-1-0.4-1-1V8.5c0-0.5,0.4-1,1-1h2.6c0.5,0,1,0.4,1,1v0.2C16.6,9.2,16.2,9.6,15.7,9.6z
					"/>
				<path class="st4" d="M29.8,9.6h-7.6c-0.5,0-1-0.4-1-1V8.5c0-0.5,0.4-1,1-1h7.6c0.5,0,1,0.4,1,1v0.2C30.7,9.2,30.3,9.6,29.8,9.6z
					"/>
				<path class="st4" d="M9.5,5.2H8.8c-0.5,0-1-0.4-1-1V4.1c0-0.5,0.4-1,1-1h0.7c0.5,0,1,0.4,1,1v0.2C10.5,4.8,10.1,5.2,9.5,5.2z"/>
				<path class="st3" d="M13.6,5.2h-0.7c-0.5,0-1-0.4-1-1V4.1c0-0.5,0.4-1,1-1h0.7c0.5,0,1,0.4,1,1v0.2C14.5,4.8,14.1,5.2,13.6,5.2z
					"/>
				<path class="st4" d="M22,5.2h-4.5c-0.5,0-1-0.4-1-1V4.1c0-0.5,0.4-1,1-1H22c0.5,0,1,0.4,1,1v0.2C22.9,4.8,22.5,5.2,22,5.2z"/>
			</g>
		</g>
	</g>
</g>
</svg>
